<?xml version="1.0" encoding="UTF-8"?>
<!--Generator: Apple Native CoreSVG 175.5-->
<!DOCTYPE svg
PUBLIC "-//W3C//DTD SVG 1.1//EN"
       "http://www.w3.org/Graphics/SVG/1.1/DTD/svg11.dtd">
<svg version="1.1" xmlns="http://www.w3.org/2000/svg" xmlns:xlink="http://www.w3.org/1999/xlink" width="10.0283" height="17.811">
 <g>
  <rect height="17.811" opacity="0" width="10.0283" x="0" y="0"/>
  <path d="M0 8.90039C0 9.15674 0.0922852 9.38232 0.287109 9.57715L8.41846 17.5239C8.59277 17.7085 8.81836 17.8008 9.08496 17.8008C9.61816 17.8008 10.0283 17.4009 10.0283 16.8677C10.0283 16.6011 9.91553 16.3755 9.75146 16.2012L2.28662 8.90039L9.75146 1.59961C9.91553 1.42529 10.0283 1.18945 10.0283 0.933105C10.0283 0.399902 9.61816 0 9.08496 0C8.81836 0 8.59277 0.0922852 8.41846 0.266602L0.287109 8.22363C0.0922852 8.4082 0 8.64404 0 8.90039Z" fill="#000000"/>
 </g>
</svg>
