<?xml version="1.0" encoding="UTF-8"?>
<!--Generator: Apple Native CoreSVG 175.5-->
<!DOCTYPE svg
PUBLIC "-//W3C//DTD SVG 1.1//EN"
       "http://www.w3.org/Graphics/SVG/1.1/DTD/svg11.dtd">
<svg version="1.1" xmlns="http://www.w3.org/2000/svg" xmlns:xlink="http://www.w3.org/1999/xlink" width="22.1074" height="18.8159">
 <g>
  <rect height="18.8159" opacity="0" width="22.1074" x="0" y="0"/>
  <path d="M12.0894 18.8057C12.5918 18.8057 13.002 18.6006 13.4941 18.1392L21.5845 10.5C21.9741 10.1309 22.1074 9.74121 22.1074 9.40283C22.1074 9.0542 21.9844 8.6748 21.5845 8.29541L13.4941 0.728027C12.9507 0.215332 12.6123 0 12.1099 0C11.3921 0 10.8794 0.563965 10.8794 1.25098L10.8794 5.12695L10.582 5.12695C3.20947 5.12695 0 9.854 0 17.4316C0 18.3135 0.502441 18.8057 1.05615 18.8057C1.48682 18.8057 1.9585 18.7031 2.31738 18.0469C4.10156 14.6938 6.61377 13.689 10.582 13.689L10.8794 13.689L10.8794 17.606C10.8794 18.293 11.3921 18.8057 12.0894 18.8057ZM12.6738 16.6011C12.5918 16.6011 12.5303 16.5396 12.5303 16.4473L12.5303 12.479C12.5303 12.2432 12.4277 12.1406 12.1919 12.1406L10.8179 12.1406C5.94727 12.1406 2.84033 13.8325 1.63037 16.4062C1.59961 16.478 1.5791 16.5088 1.52783 16.5088C1.48682 16.5088 1.45605 16.478 1.45605 16.396C1.66113 11.5562 3.77344 6.67529 10.8179 6.67529L12.1919 6.67529C12.4277 6.67529 12.5303 6.57275 12.5303 6.33691L12.5303 2.26611C12.5303 2.18408 12.5918 2.12256 12.6841 2.12256C12.7456 2.12256 12.8071 2.16357 12.8584 2.20459L20.1592 9.20801C20.231 9.27979 20.2617 9.34131 20.2617 9.40283C20.2617 9.46436 20.2412 9.51562 20.1592 9.59766L12.8481 16.5088C12.7969 16.5703 12.7354 16.6011 12.6738 16.6011Z" fill="#ffffff"/>
 </g>
</svg>
