<?xml version="1.0" encoding="UTF-8"?>
<!--Generator: Apple Native CoreSVG 175.5-->
<!DOCTYPE svg
PUBLIC "-//W3C//DTD SVG 1.1//EN"
       "http://www.w3.org/Graphics/SVG/1.1/DTD/svg11.dtd">
<svg version="1.1" xmlns="http://www.w3.org/2000/svg" xmlns:xlink="http://www.w3.org/1999/xlink" width="13.3242" height="16.6025">
 <g>
  <rect height="16.6025" opacity="0" width="13.3242" x="0" y="0"/>
  <path d="M6.66211 16.6025C7.11914 16.6025 7.44434 16.2861 7.44434 15.8291L7.44434 4.25391L7.35645 1.63477L6.85547 1.81055L10.0107 5.26465L12.0146 7.2334C12.1553 7.37402 12.3574 7.44434 12.5684 7.44434C13.0078 7.44434 13.3242 7.11035 13.3242 6.67969C13.3242 6.46875 13.2539 6.28418 13.0869 6.1084L7.25098 0.263672C7.08398 0.0878906 6.88184 0 6.66211 0C6.44238 0 6.24023 0.0878906 6.07324 0.263672L0.246094 6.1084C0.0791016 6.28418 0 6.46875 0 6.67969C0 7.11035 0.316406 7.44434 0.755859 7.44434C0.966797 7.44434 1.17773 7.37402 1.30957 7.2334L3.31348 5.26465L6.45996 1.81055L5.96777 1.63477L5.87988 4.25391L5.87988 15.8291C5.87988 16.2861 6.20508 16.6025 6.66211 16.6025Z" fill="#ffffff"/>
 </g>
</svg>
