<?xml version="1.0" encoding="UTF-8"?>
<!--Generator: Apple Native CoreSVG 175.5-->
<!DOCTYPE svg
PUBLIC "-//W3C//DTD SVG 1.1//EN"
       "http://www.w3.org/Graphics/SVG/1.1/DTD/svg11.dtd">
<svg version="1.1" xmlns="http://www.w3.org/2000/svg" xmlns:xlink="http://www.w3.org/1999/xlink" width="19.3389" height="4.11182">
 <g>
  <rect height="4.11182" opacity="0" width="19.3389" x="0" y="0"/>
  <path d="M2.05078 4.11182C3.20947 4.11182 4.13232 3.19922 4.13232 2.06104C4.13232 0.922852 3.20947 0.0102539 2.05078 0.0102539C0.922852 0.0102539 0 0.922852 0 2.06104C0 3.19922 0.922852 4.11182 2.05078 4.11182ZM9.66943 4.11182C10.8076 4.11182 11.7202 3.19922 11.7202 2.06104C11.7202 0.922852 10.8076 0.0102539 9.66943 0.0102539C8.5415 0.0102539 7.62891 0.922852 7.62891 2.06104C7.62891 3.19922 8.5415 4.11182 9.66943 4.11182ZM17.2881 4.11182C18.4263 4.11182 19.3389 3.19922 19.3389 2.06104C19.3389 0.922852 18.4263 0.0102539 17.2881 0.0102539C16.1294 0.0102539 15.2168 0.922852 15.2168 2.06104C15.2168 3.19922 16.1294 4.11182 17.2881 4.11182Z" fill="#ffffff"/>
 </g>
</svg>
