<?xml version="1.0" encoding="UTF-8"?>
<!--Generator: Apple Native CoreSVG 175.5-->
<!DOCTYPE svg
PUBLIC "-//W3C//DTD SVG 1.1//EN"
       "http://www.w3.org/Graphics/SVG/1.1/DTD/svg11.dtd">
<svg version="1.1" xmlns="http://www.w3.org/2000/svg" xmlns:xlink="http://www.w3.org/1999/xlink" width="17.042" height="21.2563">
 <g>
  <rect height="21.2563" opacity="0" width="17.042" x="0" y="0"/>
  <path d="M8.521 21.2563C8.68506 21.2563 8.95166 21.1948 9.20801 21.0513C15.0425 17.7803 17.042 16.396 17.042 12.6533L17.042 4.80908C17.042 3.73242 16.5806 3.39404 15.709 3.0249C14.499 2.52246 10.5923 1.11768 9.38232 0.697266C9.10547 0.60498 8.80811 0.543457 8.521 0.543457C8.23389 0.543457 7.93652 0.625488 7.66992 0.697266C6.45996 1.0459 2.54297 2.53271 1.33301 3.0249C0.47168 3.38379 0 3.73242 0 4.80908L0 12.6533C0 16.396 2.00977 17.77 7.83398 21.0513C8.10059 21.1948 8.35693 21.2563 8.521 21.2563ZM8.521 19.4004C8.35693 19.4004 8.19287 19.3389 7.88525 19.1543C3.14795 16.2832 1.63037 15.4424 1.63037 12.2739L1.63037 5.12695C1.63037 4.77832 1.69189 4.64502 1.979 4.53223C3.5376 3.91699 6.5625 2.90186 8.11084 2.28662C8.2749 2.21484 8.4082 2.19434 8.521 2.19434C8.63379 2.19434 8.76709 2.2251 8.93115 2.28662C10.4795 2.90186 13.4839 3.98877 15.0732 4.53223C15.3501 4.63477 15.4116 4.77832 15.4116 5.12695L15.4116 12.2739C15.4116 15.4424 13.894 16.2729 9.15674 19.1543C8.85938 19.3389 8.68506 19.4004 8.521 19.4004ZM7.40332 15.2681C7.7417 15.2681 8.02881 15.104 8.23389 14.7964L12.9199 7.41357C13.043 7.21875 13.166 6.99316 13.166 6.75732C13.166 6.30615 12.7559 6.00879 12.3354 6.00879C12.0688 6.00879 11.8125 6.1626 11.6177 6.47021L7.3623 13.2993L5.34229 10.6846C5.09619 10.3564 4.87061 10.2642 4.59375 10.2642C4.14258 10.2642 3.79395 10.623 3.79395 11.0845C3.79395 11.2998 3.88623 11.5254 4.02979 11.7202L6.53174 14.7964C6.78809 15.1348 7.06494 15.2681 7.40332 15.2681Z" fill="#ffffff" fill-opacity="0.25"/>
 </g>
</svg>
