<?xml version="1.0" encoding="UTF-8"?>
<!--Generator: Apple Native CoreSVG 175.5-->
<!DOCTYPE svg
PUBLIC "-//W3C//DTD SVG 1.1//EN"
       "http://www.w3.org/Graphics/SVG/1.1/DTD/svg11.dtd">
<svg version="1.1" xmlns="http://www.w3.org/2000/svg" xmlns:xlink="http://www.w3.org/1999/xlink" width="21.9434" height="21.9331">
 <g>
  <rect height="21.9331" opacity="0" width="21.9434" x="0" y="0"/>
  <path d="M9.93604 21.9229L12.0073 21.9229C12.7969 21.9229 13.4019 21.4409 13.5864 20.6821L14.0273 18.7646L14.3555 18.6519L16.0269 19.6772C16.6934 20.0977 17.4624 19.9951 18.0264 19.4312L19.4619 18.0059C20.0259 17.4419 20.1284 16.6626 19.708 16.0063L18.6621 14.3452L18.7852 14.0376L20.7026 13.5864C21.4512 13.4019 21.9434 12.7866 21.9434 12.0073L21.9434 9.97705C21.9434 9.19775 21.4614 8.58252 20.7026 8.39795L18.8057 7.93652L18.6724 7.6084L19.7183 5.94727C20.1387 5.29102 20.0361 4.52197 19.4722 3.94775L18.0366 2.51221C17.4829 1.9585 16.7139 1.85596 16.0474 2.26611L14.376 3.2915L14.0273 3.1582L13.5864 1.24072C13.4019 0.481934 12.7969 0 12.0073 0L9.93604 0C9.14648 0 8.5415 0.481934 8.35693 1.24072L7.90576 3.1582L7.55713 3.2915L5.896 2.26611C5.22949 1.85596 4.4502 1.9585 3.89648 2.51221L2.47119 3.94775C1.90723 4.52197 1.79443 5.29102 2.2251 5.94727L3.26074 7.6084L3.1377 7.93652L1.24072 8.39795C0.481934 8.58252 0 9.19775 0 9.97705L0 12.0073C0 12.7866 0.492188 13.4019 1.24072 13.5864L3.1582 14.0376L3.271 14.3452L2.23535 16.0063C1.80469 16.6626 1.91748 17.4419 2.48145 18.0059L3.90674 19.4312C4.4707 19.9951 5.25 20.0977 5.9165 19.6772L7.57764 18.6519L7.90576 18.7646L8.35693 20.6821C8.5415 21.4409 9.14648 21.9229 9.93604 21.9229ZM10.1001 20.3232C9.92578 20.3232 9.8335 20.2515 9.80273 20.0874L9.1875 17.5444C8.56201 17.3906 7.97754 17.1445 7.53662 16.8677L5.30127 18.2417C5.17822 18.334 5.04492 18.3135 4.92188 18.1904L3.71191 16.9805C3.59912 16.8677 3.58887 16.7446 3.6709 16.6011L5.04492 14.3862C4.80908 13.9556 4.54248 13.3711 4.37842 12.7456L1.83545 12.1406C1.67139 12.1099 1.59961 12.0176 1.59961 11.8433L1.59961 10.1309C1.59961 9.94629 1.66113 9.86426 1.83545 9.8335L4.36816 9.21826C4.53223 8.55176 4.83984 7.94678 5.02441 7.56738L3.66064 5.35254C3.56836 5.19873 3.57861 5.07568 3.69141 4.95264L4.91162 3.76318C5.03467 3.64014 5.14746 3.61963 5.30127 3.71191L7.51611 5.05518C7.95703 4.80908 8.58252 4.55273 9.19775 4.37842L9.80273 1.83545C9.8335 1.67139 9.92578 1.59961 10.1001 1.59961L11.8433 1.59961C12.0176 1.59961 12.1099 1.67139 12.1304 1.83545L12.7559 4.39893C13.3916 4.56299 13.9453 4.81934 14.4067 5.06543L16.6318 3.71191C16.7959 3.61963 16.8984 3.64014 17.0317 3.76318L18.2417 4.95264C18.3647 5.07568 18.3647 5.19873 18.2725 5.35254L16.9087 7.56738C17.1035 7.94678 17.4009 8.55176 17.5649 9.21826L20.1079 9.8335C20.272 9.86426 20.3438 9.94629 20.3438 10.1309L20.3438 11.8433C20.3438 12.0176 20.2617 12.1099 20.1079 12.1406L17.5547 12.7456C17.3906 13.3711 17.1343 13.9556 16.8882 14.3862L18.2622 16.6011C18.3442 16.7446 18.3442 16.8677 18.2212 16.9805L17.0215 18.1904C16.8882 18.3135 16.7651 18.334 16.6318 18.2417L14.3965 16.8677C13.9556 17.1445 13.3813 17.3906 12.7559 17.5444L12.1304 20.0874C12.1099 20.2515 12.0176 20.3232 11.8433 20.3232ZM10.9717 14.8784C13.1147 14.8784 14.8784 13.1147 14.8784 10.9614C14.8784 8.82861 13.1147 7.06494 10.9717 7.06494C8.82861 7.06494 7.05469 8.82861 7.05469 10.9614C7.05469 13.1045 8.81836 14.8784 10.9717 14.8784ZM10.9717 13.2891C9.7002 13.2891 8.6543 12.2432 8.6543 10.9614C8.6543 9.7002 9.7002 8.6543 10.9717 8.6543C12.2227 8.6543 13.2686 9.7002 13.2686 10.9614C13.2686 12.2329 12.2227 13.2891 10.9717 13.2891Z" fill="#ffffff" fill-opacity="0.25"/>
 </g>
</svg>
