<?xml version="1.0" encoding="UTF-8"?>
<!--Generator: Apple Native CoreSVG 175.5-->
<!DOCTYPE svg
PUBLIC "-//W3C//DTD SVG 1.1//EN"
       "http://www.w3.org/Graphics/SVG/1.1/DTD/svg11.dtd">
<svg version="1.1" xmlns="http://www.w3.org/2000/svg" xmlns:xlink="http://www.w3.org/1999/xlink" width="20.3994" height="18.8525">
 <g>
  <rect height="18.8525" opacity="0" width="20.3994" x="0" y="0"/>
  <path d="M2.72461 18.8438L12.0586 18.8438C13.8779 18.8438 14.7832 17.9297 14.7832 16.0928L14.7832 12.0146L13.3682 12.0146L13.3682 16.0664C13.3682 16.9453 12.9023 17.4287 11.9883 17.4287L2.79492 17.4287C1.88086 17.4287 1.41504 16.9453 1.41504 16.0664L1.41504 2.78613C1.41504 1.90723 1.88086 1.41504 2.79492 1.41504L11.9883 1.41504C12.9023 1.41504 13.3682 1.90723 13.3682 2.78613L13.3682 6.8291L14.7832 6.8291L14.7832 2.75977C14.7832 0.931641 13.8779 0 12.0586 0L2.72461 0C0.905273 0 0 0.931641 0 2.75977L0 16.0928C0 17.9297 0.905273 18.8438 2.72461 18.8438ZM8.12988 10.1162L17.1562 10.1162L18.4746 10.0635L17.8506 10.6611L16.4355 11.9883C16.2949 12.1113 16.2246 12.2959 16.2246 12.4629C16.2246 12.832 16.4795 13.1045 16.8398 13.1045C17.0244 13.1045 17.165 13.0342 17.3057 12.9023L20.1709 9.93164C20.3467 9.75586 20.3994 9.59766 20.3994 9.42188C20.3994 9.2373 20.3467 9.08789 20.1709 8.91211L17.3057 5.94141C17.165 5.80957 17.0244 5.73047 16.8398 5.73047C16.4795 5.73047 16.2246 5.99414 16.2246 6.36328C16.2246 6.53906 16.2949 6.72363 16.4355 6.84668L17.8506 8.18262L18.4746 8.78027L17.1562 8.71875L8.12988 8.71875C7.76074 8.71875 7.45312 9.04395 7.45312 9.42188C7.45312 9.7998 7.76074 10.1162 8.12988 10.1162Z" fill="#ff3b30"/>
 </g>
</svg>
