<?xml version="1.0" encoding="UTF-8"?>
<!--Generator: Apple Native CoreSVG 175.5-->
<!DOCTYPE svg
PUBLIC "-//W3C//DTD SVG 1.1//EN"
       "http://www.w3.org/Graphics/SVG/1.1/DTD/svg11.dtd">
<svg version="1.1" xmlns="http://www.w3.org/2000/svg" xmlns:xlink="http://www.w3.org/1999/xlink" width="20.918" height="20.9282">
 <g>
  <rect height="20.9282" opacity="0" width="20.918" x="0" y="0"/>
  <path d="M10.459 20.918C16.1807 20.918 20.918 16.1704 20.918 10.459C20.918 4.7373 16.1704 0 10.4487 0C4.7373 0 0 4.7373 0 10.459C0 16.1704 4.74756 20.918 10.459 20.918ZM10.459 19.1748C5.61914 19.1748 1.75342 15.2988 1.75342 10.459C1.75342 5.61914 5.60889 1.74316 10.4487 1.74316C15.2886 1.74316 19.1748 5.61914 19.1748 10.459C19.1748 15.2988 15.2988 19.1748 10.459 19.1748ZM8.66455 16.2012L12.8379 16.2012C13.2583 16.2012 13.5864 15.8936 13.5864 15.4731C13.5864 15.0732 13.2583 14.7554 12.8379 14.7554L11.5664 14.7554L11.5664 9.53613C11.5664 8.98242 11.2896 8.61328 10.7666 8.61328L8.83887 8.61328C8.41846 8.61328 8.09033 8.93115 8.09033 9.33105C8.09033 9.75146 8.41846 10.0591 8.83887 10.0591L9.93604 10.0591L9.93604 14.7554L8.66455 14.7554C8.24414 14.7554 7.91602 15.0732 7.91602 15.4731C7.91602 15.8936 8.24414 16.2012 8.66455 16.2012ZM10.3667 6.91113C11.1152 6.91113 11.6997 6.31641 11.6997 5.56787C11.6997 4.81934 11.1152 4.22461 10.3667 4.22461C9.62842 4.22461 9.03369 4.81934 9.03369 5.56787C9.03369 6.31641 9.62842 6.91113 10.3667 6.91113Z" fill="#ffffff"/>
 </g>
</svg>
