<?xml version="1.0" encoding="UTF-8"?>
<!--Generator: Apple Native CoreSVG 175.5-->
<!DOCTYPE svg
PUBLIC "-//W3C//DTD SVG 1.1//EN"
       "http://www.w3.org/Graphics/SVG/1.1/DTD/svg11.dtd">
<svg version="1.1" xmlns="http://www.w3.org/2000/svg" xmlns:xlink="http://www.w3.org/1999/xlink" width="20.3643" height="19.4517">
 <g>
  <rect height="19.4517" opacity="0" width="20.3643" x="0" y="0"/>
  <path d="M0 6.81885C0 11.187 3.66064 15.4834 9.44385 19.1748C9.65918 19.3081 9.9668 19.4517 10.1821 19.4517C10.3975 19.4517 10.7051 19.3081 10.9307 19.1748C16.7036 15.4834 20.3643 11.187 20.3643 6.81885C20.3643 3.18896 17.8726 0.625488 14.5503 0.625488C12.6533 0.625488 11.1152 1.52783 10.1821 2.91211C9.26953 1.53809 7.71094 0.625488 5.81396 0.625488C2.4917 0.625488 0 3.18896 0 6.81885ZM1.65088 6.81885C1.65088 4.09131 3.41455 2.27637 5.79346 2.27637C7.72119 2.27637 8.82861 3.47607 9.48486 4.50146C9.76172 4.91162 9.93604 5.02441 10.1821 5.02441C10.4282 5.02441 10.582 4.90137 10.8794 4.50146C11.5869 3.49658 12.6533 2.27637 14.5708 2.27637C16.9497 2.27637 18.7134 4.09131 18.7134 6.81885C18.7134 10.6333 14.6836 14.7451 10.3975 17.5957C10.2949 17.6675 10.2231 17.7188 10.1821 17.7188C10.1411 17.7188 10.0693 17.6675 9.97705 17.5957C5.68066 14.7451 1.65088 10.6333 1.65088 6.81885Z" fill="#ffffff"/>
 </g>
</svg>
