<?xml version="1.0" encoding="UTF-8"?>
<!--Generator: Apple Native CoreSVG 175.5-->
<!DOCTYPE svg
PUBLIC "-//W3C//DTD SVG 1.1//EN"
       "http://www.w3.org/Graphics/SVG/1.1/DTD/svg11.dtd">
<svg version="1.1" xmlns="http://www.w3.org/2000/svg" xmlns:xlink="http://www.w3.org/1999/xlink" width="19.3491" height="21.1948">
 <g>
  <rect height="21.1948" opacity="0" width="19.3491" x="0" y="0"/>
  <path d="M0 16.2319C0 16.9805 0.574219 17.4727 1.54834 17.4727L5.87549 17.4727C5.95752 19.4517 7.50586 21.1846 9.66943 21.1846C11.8433 21.1846 13.3916 19.4619 13.4736 17.4727L17.8008 17.4727C18.7646 17.4727 19.3491 16.9805 19.3491 16.2319C19.3491 15.2065 18.3032 14.2837 17.4214 13.3711C16.7446 12.6636 16.5601 11.2075 16.478 10.0283C16.4062 5.98828 15.3604 3.38379 12.6328 2.39941C12.2842 1.05615 11.187 0 9.66943 0C8.16211 0 7.05469 1.05615 6.71631 2.39941C3.98877 3.38379 2.94287 5.98828 2.87109 10.0283C2.78906 11.2075 2.60449 12.6636 1.92773 13.3711C1.03564 14.2837 0 15.2065 0 16.2319ZM1.98926 15.9243L1.98926 15.8013C2.17383 15.5039 2.78906 14.8989 3.32227 14.3042C4.06055 13.4839 4.40918 12.1611 4.50146 10.1616C4.5835 5.68066 5.9165 4.25537 7.66992 3.77344C7.92627 3.71191 8.06982 3.58887 8.08008 3.32227C8.11084 2.25586 8.72607 1.50732 9.66943 1.50732C10.623 1.50732 11.228 2.25586 11.269 3.32227C11.2793 3.58887 11.4126 3.71191 11.6689 3.77344C13.4326 4.25537 14.7656 5.68066 14.8477 10.1616C14.9399 12.1611 15.2886 13.4839 16.0166 14.3042C16.5601 14.8989 17.165 15.5039 17.3496 15.8013L17.3496 15.9243ZM7.4751 17.4727L11.874 17.4727C11.792 18.8672 10.9102 19.7388 9.66943 19.7388C8.43896 19.7388 7.54688 18.8672 7.4751 17.4727Z" fill="#ffffff" fill-opacity="0.25"/>
 </g>
</svg>
