<?xml version="1.0" encoding="UTF-8"?>
<!--Generator: Apple Native CoreSVG 175.5-->
<!DOCTYPE svg
PUBLIC "-//W3C//DTD SVG 1.1//EN"
       "http://www.w3.org/Graphics/SVG/1.1/DTD/svg11.dtd">
<svg version="1.1" xmlns="http://www.w3.org/2000/svg" xmlns:xlink="http://www.w3.org/1999/xlink" width="20.6616" height="14.4478">
 <g>
  <rect height="14.4478" opacity="0" width="20.6616" x="0" y="0"/>
  <path d="M6.84961 1.85596L19.8311 1.85596C20.2925 1.85596 20.6616 1.49707 20.6616 1.03564C20.6616 0.563965 20.2925 0.205078 19.8311 0.205078L6.84961 0.205078C6.37793 0.205078 6.01904 0.563965 6.01904 1.03564C6.01904 1.49707 6.37793 1.85596 6.84961 1.85596ZM6.84961 8.05957L19.8311 8.05957C20.2925 8.05957 20.6616 7.69043 20.6616 7.229C20.6616 6.76758 20.2925 6.40869 19.8311 6.40869L6.84961 6.40869C6.37793 6.40869 6.01904 6.76758 6.01904 7.229C6.01904 7.69043 6.37793 8.05957 6.84961 8.05957ZM6.84961 14.2529L19.8311 14.2529C20.2925 14.2529 20.6616 13.894 20.6616 13.4326C20.6616 12.9609 20.2925 12.6021 19.8311 12.6021L6.84961 12.6021C6.37793 12.6021 6.01904 12.9609 6.01904 13.4326C6.01904 13.894 6.37793 14.2529 6.84961 14.2529ZM1.01514 2.05078L2.76855 2.05078C3.33252 2.05078 3.79395 1.58936 3.79395 1.03564C3.79395 0.461426 3.33252 0.0102539 2.76855 0.0102539L1.01514 0.0102539C0.451172 0.0102539 0 0.461426 0 1.03564C0 1.58936 0.451172 2.05078 1.01514 2.05078ZM1.01514 8.25439L2.76855 8.25439C3.33252 8.25439 3.79395 7.79297 3.79395 7.229C3.79395 6.66504 3.33252 6.21387 2.76855 6.21387L1.01514 6.21387C0.451172 6.21387 0 6.66504 0 7.229C0 7.79297 0.451172 8.25439 1.01514 8.25439ZM1.01514 14.4478L2.76855 14.4478C3.33252 14.4478 3.79395 13.9863 3.79395 13.4326C3.79395 12.8584 3.33252 12.4072 2.76855 12.4072L1.01514 12.4072C0.451172 12.4072 0 12.8584 0 13.4326C0 13.9863 0.451172 14.4478 1.01514 14.4478Z" fill="#ffffff" fill-opacity="0.25"/>
 </g>
</svg>
