<?xml version="1.0" encoding="UTF-8"?>
<!--Generator: Apple Native CoreSVG 175.5-->
<!DOCTYPE svg
PUBLIC "-//W3C//DTD SVG 1.1//EN"
       "http://www.w3.org/Graphics/SVG/1.1/DTD/svg11.dtd">
<svg version="1.1" xmlns="http://www.w3.org/2000/svg" xmlns:xlink="http://www.w3.org/1999/xlink" width="11.146" height="19.6362">
 <g>
  <rect height="19.6362" opacity="0" width="11.146" x="0" y="0"/>
  <path d="M5.07568 14.0273C5.79346 14.0273 6.12158 13.5352 6.12158 12.8789C6.12158 12.7661 6.12158 12.6431 6.12158 12.5303C6.14209 11.1768 6.62402 10.6128 8.26465 9.48486C10.0283 8.29541 11.146 6.92139 11.146 4.94238C11.146 1.86621 8.64404 0.102539 5.52686 0.102539C3.20947 0.102539 1.1792 1.19971 0.307617 3.17871C0.0922852 3.66064 0 4.13232 0 4.52197C0 5.10645 0.338379 5.5166 0.963867 5.5166C1.48682 5.5166 1.83545 5.20898 1.98926 4.70654C2.51221 2.7583 3.8042 2.02002 5.45508 2.02002C7.45459 2.02002 9.02344 3.14795 9.02344 4.93213C9.02344 6.39844 8.11084 7.21875 6.79834 8.1416C5.18848 9.25928 4.00928 10.459 4.00928 12.2637C4.00928 12.479 4.00928 12.6943 4.00928 12.9097C4.00928 13.5659 4.36816 14.0273 5.07568 14.0273ZM5.07568 19.6362C5.896 19.6362 6.54199 18.98 6.54199 18.1802C6.54199 17.3701 5.896 16.7241 5.07568 16.7241C4.27588 16.7241 3.61963 17.3701 3.61963 18.1802C3.61963 18.98 4.27588 19.6362 5.07568 19.6362Z" fill="#ffffff" fill-opacity="0.25"/>
 </g>
</svg>
